# xmcd CD database file
#
# Track frame offsets:
#	150
#	18292
#	36372
#	45522
#	63037
#	74435
#	97312
#	109517
#	123342
#	137857
#	156435
#	173925
#	194912
#	212675
#	229340
#	241067
#	254820
#
# Disc length: 3608 seconds
#
# Revision: 0
# Processed by: cddbd v1.5PL3 Copyright (c) Steve Scherf et al.
# Submitted via: CDex 1.51
#
DISCID=000e1611
DTITLE=Ralph Sharon - Portrait Of Harold
DYEAR=1900
DGENRE=Jazz
TTITLE0=My Shining Hour
TTITLE1=Ill Wind
TTITLE2=Let's Fall In Love
TTITLE3=This Time The Dream's On Me
TTITLE4=It's Only A Paper Moon
TTITLE5=Portrait Of Harold
TTITLE6=Come Rain Or Come Shine
TTITLE7=It Was Written In The Stars
TTITLE8=Between The Devil And The Deep Blue Sea
TTITLE9=The Man That Got Away
TTITLE10=I've Got The World On A String
TTITLE11=Out Of This World
TTITLE12=Sing My Heart
TTITLE13=A Sleepin' Bee
TTITLE14=Hit The Road To Dreamland
TTITLE15=Right As The Rain
TTITLE16=That Old Black Magic
EXTD=
EXTT0=
EXTT1=
EXTT2=
EXTT3=
EXTT4=
EXTT5=
EXTT6=
EXTT7=
EXTT8=
EXTT9=
EXTT10=
EXTT11=
EXTT12=
EXTT13=
EXTT14=
EXTT15=
EXTT16=
PLAYORDER=
